<svg width="24" height="24" viewBox="0 0 128 128" fill="none" xmlns="http://www.w3.org/2000/svg">
<path d="M96.0963 60.3168C96.0963 56.4101 95.1485 52.6106 93.3039 49.3371C87.4939 38.6493 75.7601 32 63.8322 32C51.9042 32 40.1704 38.6493 34.3604 49.3371C32.5158 52.6106 31.568 56.4101 31.568 60.3168C31.568 62.1332 31.8105 63.9515 32.227 65.7336H34.3604C32.5158 69.0072 31.568 72.8066 31.568 76.7133C31.568 90.7303 40.5888 102.73 53.0784 107.03C60.108 109.431 67.5564 109.431 74.5861 107.03C87.0757 102.73 96.0963 90.7303 96.0963 76.7133C96.0963 72.8066 95.1485 69.0072 93.3039 65.7336H95.4373C95.8538 63.9515 96.0963 62.1332 96.0963 60.3168Z" fill="white"/>
<path d="M57.6974 53.8C59.043 53.8 60.1337 54.8907 60.1337 56.2363C60.1337 57.5819 59.043 58.6725 57.6974 58.6725C56.3518 58.6725 55.2612 57.5819 55.2612 56.2363C55.2612 54.8907 56.3518 53.8 57.6974 53.8Z" fill="#AB9FF2"/>
<path d="M69.9678 53.8C71.3134 53.8 72.4041 54.8907 72.4041 56.2363C72.4041 57.5819 71.3134 58.6725 69.9678 58.6725C68.6222 58.6725 67.5315 57.5819 67.5315 56.2363C67.5315 54.8907 68.6222 53.8 69.9678 53.8Z" fill="#AB9FF2"/>
</svg>
